<svg width="856" height="488" viewBox="0 0 856 488" fill="none" xmlns="http://www.w3.org/2000/svg">
<path d="M12.4 328.2V284.6L144.4 107H212.4L83.2 284.6L51.6 275.4H272V328.2H12.4ZM163.2 387V328.2L165.2 275.4V223H226.4V387H163.2ZM427.381 391.8C404.448 391.8 383.915 386.2 365.781 375C347.648 363.533 333.381 347 322.981 325.4C312.581 303.8 307.381 277.667 307.381 247C307.381 216.333 312.581 190.2 322.981 168.6C333.381 147 347.648 130.6 365.781 119.4C383.915 107.933 404.448 102.2 427.381 102.2C450.581 102.2 471.115 107.933 488.981 119.4C507.115 130.6 521.381 147 531.781 168.6C542.181 190.2 547.381 216.333 547.381 247C547.381 277.667 542.181 303.8 531.781 325.4C521.381 347 507.115 363.533 488.981 375C471.115 386.2 450.581 391.8 427.381 391.8ZM427.381 337C438.315 337 447.781 333.933 455.781 327.8C464.048 321.667 470.448 311.933 474.981 298.6C479.781 285.267 482.181 268.067 482.181 247C482.181 225.933 479.781 208.733 474.981 195.4C470.448 182.067 464.048 172.333 455.781 166.2C447.781 160.067 438.315 157 427.381 157C416.715 157 407.248 160.067 398.981 166.2C390.981 172.333 384.581 182.067 379.781 195.4C375.248 208.733 372.981 225.933 372.981 247C372.981 268.067 375.248 285.267 379.781 298.6C384.581 311.933 390.981 321.667 398.981 327.8C407.248 333.933 416.715 337 427.381 337ZM591.666 328.2V284.6L723.666 107H791.666L662.466 284.6L630.866 275.4H851.266V328.2H591.666ZM742.466 387V328.2L744.466 275.4V223H805.666V387H742.466Z" fill="#4C4A8A" fill-opacity="0.2"/>
<circle cx="433" cy="250" r="150" fill="#DBDBE8"/>
<path d="M718 176C718 256.081 653.081 321 573 321C492.919 321 428 256.081 428 176C428 95.9187 492.919 31 573 31C653.081 31 718 95.9187 718 176ZM505.475 176C505.475 213.293 535.707 243.525 573 243.525C610.293 243.525 640.525 213.293 640.525 176C640.525 138.707 610.293 108.475 573 108.475C535.707 108.475 505.475 138.707 505.475 176Z" fill="#319FEA" fill-opacity="0.9"/>
</svg>
